<mxfile host="app.diagrams.net" agent="Mozilla/5.0 (Windows NT 10.0; Win64; x64) AppleWebKit/537.36 (KHTML, like Gecko) Chrome/141.0.0.0 Safari/537.36" version="28.2.5">
  <diagram name="PÃ¡gina-1" id="LO_4rlKmvLSaViDXeW9h">
    <mxGraphModel grid="1" page="1" gridSize="10" guides="1" tooltips="1" connect="1" arrows="1" fold="1" pageScale="1" pageWidth="827" pageHeight="1169" math="0" shadow="0">
      <root>
        <mxCell id="0" />
        <mxCell id="1" parent="0" />
        <mxCell id="2C9gVhZAuqu1uICuyhzh-3" style="edgeStyle=orthogonalEdgeStyle;rounded=0;orthogonalLoop=1;jettySize=auto;html=1;exitX=0.5;exitY=1;exitDx=0;exitDy=0;entryX=0.5;entryY=0;entryDx=0;entryDy=0;" edge="1" parent="1" source="2C9gVhZAuqu1uICuyhzh-1" target="2C9gVhZAuqu1uICuyhzh-2">
          <mxGeometry relative="1" as="geometry" />
        </mxCell>
        <mxCell id="2C9gVhZAuqu1uICuyhzh-1" value="" style="ellipse;whiteSpace=wrap;html=1;aspect=fixed;" vertex="1" parent="1">
          <mxGeometry x="473.75" y="-80" width="30" height="30" as="geometry" />
        </mxCell>
        <mxCell id="2C9gVhZAuqu1uICuyhzh-5" style="edgeStyle=orthogonalEdgeStyle;rounded=0;orthogonalLoop=1;jettySize=auto;html=1;entryX=0.5;entryY=0;entryDx=0;entryDy=0;" edge="1" parent="1" source="2C9gVhZAuqu1uICuyhzh-2" target="2C9gVhZAuqu1uICuyhzh-4">
          <mxGeometry relative="1" as="geometry">
            <Array as="points" />
          </mxGeometry>
        </mxCell>
        <mxCell id="2C9gVhZAuqu1uICuyhzh-2" value="arrayPrueba =&lt;div&gt;&amp;nbsp;[7, 5, 2, 8];&lt;/div&gt;" style="shape=parallelogram;perimeter=parallelogramPerimeter;whiteSpace=wrap;html=1;fixedSize=1;" vertex="1" parent="1">
          <mxGeometry x="424.38" y="10" width="127.5" height="50" as="geometry" />
        </mxCell>
        <mxCell id="2C9gVhZAuqu1uICuyhzh-8" style="rounded=0;orthogonalLoop=1;jettySize=auto;html=1;exitX=0.5;exitY=1;exitDx=0;exitDy=0;entryX=0.5;entryY=0;entryDx=0;entryDy=0;" edge="1" parent="1" source="2C9gVhZAuqu1uICuyhzh-4" target="2C9gVhZAuqu1uICuyhzh-7">
          <mxGeometry relative="1" as="geometry" />
        </mxCell>
        <mxCell id="Gp1Nb1BOTy6Ls-EazSuC-32" value="SI" style="edgeLabel;html=1;align=center;verticalAlign=middle;resizable=0;points=[];" connectable="0" vertex="1" parent="2C9gVhZAuqu1uICuyhzh-8">
          <mxGeometry x="0.215" y="4" relative="1" as="geometry">
            <mxPoint x="-3" y="-8" as="offset" />
          </mxGeometry>
        </mxCell>
        <mxCell id="2C9gVhZAuqu1uICuyhzh-4" value="&lt;font style=&quot;font-size: 9px;&quot;&gt;i &amp;lt; arrayPrueba&lt;/font&gt;&lt;div&gt;&lt;font style=&quot;font-size: 9px;&quot;&gt;.length&lt;/font&gt;&lt;/div&gt;" style="rhombus;whiteSpace=wrap;html=1;" vertex="1" parent="1">
          <mxGeometry x="433.75" y="135" width="110" height="90" as="geometry" />
        </mxCell>
        <mxCell id="Gp1Nb1BOTy6Ls-EazSuC-2" style="rounded=0;orthogonalLoop=1;jettySize=auto;html=1;exitX=0.5;exitY=1;exitDx=0;exitDy=0;entryX=0.5;entryY=0;entryDx=0;entryDy=0;" edge="1" parent="1" source="2C9gVhZAuqu1uICuyhzh-7" target="Gp1Nb1BOTy6Ls-EazSuC-1">
          <mxGeometry relative="1" as="geometry" />
        </mxCell>
        <mxCell id="2C9gVhZAuqu1uICuyhzh-7" value="let aux = 0;" style="shape=parallelogram;perimeter=parallelogramPerimeter;whiteSpace=wrap;html=1;fixedSize=1;" vertex="1" parent="1">
          <mxGeometry x="433.75" y="280" width="108.75" height="40" as="geometry" />
        </mxCell>
        <mxCell id="Gp1Nb1BOTy6Ls-EazSuC-4" style="edgeStyle=orthogonalEdgeStyle;rounded=0;orthogonalLoop=1;jettySize=auto;html=1;exitX=0;exitY=0.5;exitDx=0;exitDy=0;entryX=0.5;entryY=0;entryDx=0;entryDy=0;" edge="1" parent="1" source="Gp1Nb1BOTy6Ls-EazSuC-1" target="Gp1Nb1BOTy6Ls-EazSuC-3">
          <mxGeometry relative="1" as="geometry" />
        </mxCell>
        <mxCell id="Gp1Nb1BOTy6Ls-EazSuC-24" value="SI" style="edgeLabel;html=1;align=center;verticalAlign=middle;resizable=0;points=[];" connectable="0" vertex="1" parent="Gp1Nb1BOTy6Ls-EazSuC-4">
          <mxGeometry x="0.3003" y="-1" relative="1" as="geometry">
            <mxPoint x="111" y="-7" as="offset" />
          </mxGeometry>
        </mxCell>
        <mxCell id="Gp1Nb1BOTy6Ls-EazSuC-51" style="edgeStyle=orthogonalEdgeStyle;rounded=0;orthogonalLoop=1;jettySize=auto;html=1;exitX=1;exitY=0.5;exitDx=0;exitDy=0;entryX=0.5;entryY=1;entryDx=0;entryDy=0;" edge="1" parent="1" source="Gp1Nb1BOTy6Ls-EazSuC-1" target="Gp1Nb1BOTy6Ls-EazSuC-50">
          <mxGeometry relative="1" as="geometry" />
        </mxCell>
        <mxCell id="Gp1Nb1BOTy6Ls-EazSuC-55" value="NO" style="edgeLabel;html=1;align=center;verticalAlign=middle;resizable=0;points=[];" connectable="0" vertex="1" parent="Gp1Nb1BOTy6Ls-EazSuC-51">
          <mxGeometry x="-0.0276" y="-1" relative="1" as="geometry">
            <mxPoint x="-27" y="25" as="offset" />
          </mxGeometry>
        </mxCell>
        <mxCell id="Gp1Nb1BOTy6Ls-EazSuC-1" value="&lt;font style=&quot;font-size: 9px;&quot;&gt;&amp;nbsp;j &amp;lt; arrayPrueba.length-i-1&lt;/font&gt;" style="rhombus;whiteSpace=wrap;html=1;" vertex="1" parent="1">
          <mxGeometry x="428" y="360" width="120.25" height="100" as="geometry" />
        </mxCell>
        <mxCell id="Gp1Nb1BOTy6Ls-EazSuC-20" style="edgeStyle=orthogonalEdgeStyle;rounded=0;orthogonalLoop=1;jettySize=auto;html=1;exitX=0;exitY=0.5;exitDx=0;exitDy=0;entryX=0.5;entryY=0;entryDx=0;entryDy=0;" edge="1" parent="1" source="Gp1Nb1BOTy6Ls-EazSuC-3" target="Gp1Nb1BOTy6Ls-EazSuC-5">
          <mxGeometry relative="1" as="geometry" />
        </mxCell>
        <mxCell id="Gp1Nb1BOTy6Ls-EazSuC-21" value="SI" style="edgeLabel;html=1;align=center;verticalAlign=middle;resizable=0;points=[];" connectable="0" vertex="1" parent="Gp1Nb1BOTy6Ls-EazSuC-20">
          <mxGeometry x="-0.2136" relative="1" as="geometry">
            <mxPoint as="offset" />
          </mxGeometry>
        </mxCell>
        <mxCell id="Gp1Nb1BOTy6Ls-EazSuC-46" style="edgeStyle=orthogonalEdgeStyle;rounded=0;orthogonalLoop=1;jettySize=auto;html=1;exitX=1;exitY=0.5;exitDx=0;exitDy=0;entryX=0.5;entryY=1;entryDx=0;entryDy=0;" edge="1" parent="1" source="Gp1Nb1BOTy6Ls-EazSuC-3" target="Gp1Nb1BOTy6Ls-EazSuC-45">
          <mxGeometry relative="1" as="geometry" />
        </mxCell>
        <mxCell id="Gp1Nb1BOTy6Ls-EazSuC-47" value="NO" style="edgeLabel;html=1;align=center;verticalAlign=middle;resizable=0;points=[];" connectable="0" vertex="1" parent="Gp1Nb1BOTy6Ls-EazSuC-46">
          <mxGeometry x="-0.2079" y="-2" relative="1" as="geometry">
            <mxPoint x="-35" as="offset" />
          </mxGeometry>
        </mxCell>
        <mxCell id="Gp1Nb1BOTy6Ls-EazSuC-3" value="arrayPrueba[j + 1] &amp;lt; arrayPrueba[j]" style="rhombus;whiteSpace=wrap;html=1;" vertex="1" parent="1">
          <mxGeometry x="224.51" y="500" width="110.24" height="120" as="geometry" />
        </mxCell>
        <mxCell id="Gp1Nb1BOTy6Ls-EazSuC-13" style="edgeStyle=orthogonalEdgeStyle;rounded=0;orthogonalLoop=1;jettySize=auto;html=1;exitX=0.5;exitY=1;exitDx=0;exitDy=0;entryX=0.5;entryY=0;entryDx=0;entryDy=0;" edge="1" parent="1" source="Gp1Nb1BOTy6Ls-EazSuC-5" target="Gp1Nb1BOTy6Ls-EazSuC-10">
          <mxGeometry relative="1" as="geometry" />
        </mxCell>
        <mxCell id="Gp1Nb1BOTy6Ls-EazSuC-5" value="aux = arrayPrueba[j + 1];" style="rounded=0;whiteSpace=wrap;html=1;" vertex="1" parent="1">
          <mxGeometry x="65.25" y="610" width="126" height="50" as="geometry" />
        </mxCell>
        <mxCell id="Gp1Nb1BOTy6Ls-EazSuC-17" style="edgeStyle=orthogonalEdgeStyle;rounded=0;orthogonalLoop=1;jettySize=auto;html=1;exitX=0.5;exitY=1;exitDx=0;exitDy=0;entryX=0.5;entryY=0;entryDx=0;entryDy=0;" edge="1" parent="1" source="Gp1Nb1BOTy6Ls-EazSuC-10" target="Gp1Nb1BOTy6Ls-EazSuC-11">
          <mxGeometry relative="1" as="geometry" />
        </mxCell>
        <mxCell id="Gp1Nb1BOTy6Ls-EazSuC-10" value="arrayPrueba[j + 1] = arrayPrueba[j];" style="rounded=0;whiteSpace=wrap;html=1;" vertex="1" parent="1">
          <mxGeometry x="64" y="680" width="126" height="50" as="geometry" />
        </mxCell>
        <mxCell id="Gp1Nb1BOTy6Ls-EazSuC-49" style="edgeStyle=orthogonalEdgeStyle;rounded=0;orthogonalLoop=1;jettySize=auto;html=1;exitX=1;exitY=0.5;exitDx=0;exitDy=0;" edge="1" parent="1" source="Gp1Nb1BOTy6Ls-EazSuC-11">
          <mxGeometry relative="1" as="geometry">
            <mxPoint x="440" y="560" as="targetPoint" />
          </mxGeometry>
        </mxCell>
        <mxCell id="Gp1Nb1BOTy6Ls-EazSuC-11" value="arrayPrueba[j] = aux;" style="rounded=0;whiteSpace=wrap;html=1;" vertex="1" parent="1">
          <mxGeometry x="60" y="760" width="134" height="50" as="geometry" />
        </mxCell>
        <mxCell id="Gp1Nb1BOTy6Ls-EazSuC-34" style="edgeStyle=orthogonalEdgeStyle;rounded=0;orthogonalLoop=1;jettySize=auto;html=1;exitX=0;exitY=0.75;exitDx=0;exitDy=0;entryX=0;entryY=0.5;entryDx=0;entryDy=0;" edge="1" parent="1" source="2C9gVhZAuqu1uICuyhzh-7" target="2C9gVhZAuqu1uICuyhzh-7">
          <mxGeometry relative="1" as="geometry" />
        </mxCell>
        <mxCell id="Gp1Nb1BOTy6Ls-EazSuC-48" style="rounded=0;orthogonalLoop=1;jettySize=auto;html=1;exitX=0.5;exitY=0;exitDx=0;exitDy=0;" edge="1" parent="1" source="Gp1Nb1BOTy6Ls-EazSuC-45">
          <mxGeometry relative="1" as="geometry">
            <mxPoint x="576" y="410" as="targetPoint" />
          </mxGeometry>
        </mxCell>
        <mxCell id="Gp1Nb1BOTy6Ls-EazSuC-45" value="j++" style="rounded=0;whiteSpace=wrap;html=1;" vertex="1" parent="1">
          <mxGeometry x="530" y="480" width="92" height="50" as="geometry" />
        </mxCell>
        <mxCell id="Gp1Nb1BOTy6Ls-EazSuC-54" style="edgeStyle=elbowEdgeStyle;rounded=0;orthogonalLoop=1;jettySize=auto;html=1;exitX=0.5;exitY=0;exitDx=0;exitDy=0;" edge="1" parent="1" source="Gp1Nb1BOTy6Ls-EazSuC-50">
          <mxGeometry relative="1" as="geometry">
            <mxPoint x="490" y="110" as="targetPoint" />
            <Array as="points">
              <mxPoint x="636" y="150" />
            </Array>
          </mxGeometry>
        </mxCell>
        <mxCell id="Gp1Nb1BOTy6Ls-EazSuC-50" value="i++" style="rounded=0;whiteSpace=wrap;html=1;" vertex="1" parent="1">
          <mxGeometry x="590" y="216" width="92" height="50" as="geometry" />
        </mxCell>
        <mxCell id="Gp1Nb1BOTy6Ls-EazSuC-56" style="rounded=0;orthogonalLoop=1;jettySize=auto;html=1;exitX=0;exitY=0.5;exitDx=0;exitDy=0;entryX=1;entryY=0.5;entryDx=0;entryDy=0;" edge="1" parent="1" source="2C9gVhZAuqu1uICuyhzh-4" target="Gp1Nb1BOTy6Ls-EazSuC-58">
          <mxGeometry relative="1" as="geometry">
            <mxPoint x="360" y="181" as="targetPoint" />
          </mxGeometry>
        </mxCell>
        <mxCell id="Gp1Nb1BOTy6Ls-EazSuC-57" value="NO" style="edgeLabel;html=1;align=center;verticalAlign=middle;resizable=0;points=[];" connectable="0" vertex="1" parent="Gp1Nb1BOTy6Ls-EazSuC-56">
          <mxGeometry x="-0.0094" y="-1" relative="1" as="geometry">
            <mxPoint as="offset" />
          </mxGeometry>
        </mxCell>
        <mxCell id="Gp1Nb1BOTy6Ls-EazSuC-59" style="edgeStyle=none;rounded=0;orthogonalLoop=1;jettySize=auto;html=1;exitX=0.5;exitY=1;exitDx=0;exitDy=0;" edge="1" parent="1" source="Gp1Nb1BOTy6Ls-EazSuC-58">
          <mxGeometry relative="1" as="geometry">
            <mxPoint x="126.33333333333337" y="250" as="targetPoint" />
          </mxGeometry>
        </mxCell>
        <mxCell id="Gp1Nb1BOTy6Ls-EazSuC-58" value="&lt;span style=&quot;font-family: monospace;&quot;&gt;&lt;font style=&quot;font-size: 7px;&quot;&gt;console.log(arrayPrueba)&lt;/font&gt;&lt;/span&gt;" style="rounded=0;whiteSpace=wrap;html=1;" vertex="1" parent="1">
          <mxGeometry x="75.75999999999999" y="150" width="100.37" height="60" as="geometry" />
        </mxCell>
        <mxCell id="Gp1Nb1BOTy6Ls-EazSuC-62" style="edgeStyle=none;rounded=0;orthogonalLoop=1;jettySize=auto;html=1;exitX=0;exitY=0;exitDx=71.25;exitDy=40;exitPerimeter=0;entryX=0.5;entryY=0;entryDx=0;entryDy=0;" edge="1" parent="1" source="Gp1Nb1BOTy6Ls-EazSuC-60" target="Gp1Nb1BOTy6Ls-EazSuC-61">
          <mxGeometry relative="1" as="geometry" />
        </mxCell>
        <mxCell id="Gp1Nb1BOTy6Ls-EazSuC-60" value="arrayPrueba =&lt;div&gt;&amp;nbsp;[2, 5, 7, 8];&lt;/div&gt;" style="shape=display;whiteSpace=wrap;html=1;" vertex="1" parent="1">
          <mxGeometry x="55" y="250" width="130" height="40" as="geometry" />
        </mxCell>
        <mxCell id="Gp1Nb1BOTy6Ls-EazSuC-61" value="" style="ellipse;whiteSpace=wrap;html=1;aspect=fixed;" vertex="1" parent="1">
          <mxGeometry x="110.95" y="350" width="30" height="30" as="geometry" />
        </mxCell>
      </root>
    </mxGraphModel>
  </diagram>
</mxfile>
